# xmcd
#
# Track frame offsets: 
#        150
#        13280
#        22899
#        30831
#        43316
#        50231
#        62646
#        74207
#        90235
#        99876
#        113090
#        127188
#        141736
#        154619
#        169514
#        179870
#        187890
#        197685
#        206567
#        216648
#        226087
#        237624
#        248066
#        260896
#        271818
#        285914
#
# Disc length: 3999 seconds
#
# Revision: 0
# Processed by: cddbd v1.5.2PL0 Copyright (c) Steve Scherf et al.
# Submitted via: ExactAudioCopyFreeDBPlugin 1.0
#
DISCID=870f9d1a
DTITLE=Jim Reeves - Welcome To My World - CD 16
DYEAR=2001
DGENRE=Country
TTITLE0=Distant Drums
TTITLE1=The Storm
TTITLE2=Trying To Forget
TTITLE3=Nobody's Fool
TTITLE4=Gypsy Feet
TTITLE5=The Writing's On The Wall
TTITLE6=I'm Glad You're Better
TTITLE7=Please Forgive
TTITLE8=Right Words
TTITLE9=You Darling You
TTITLE10=One Little Rose
TTITLE11=I'd Rather Not Know
TTITLE12=Ballad Of 96
TTITLE13=Lonesome Waltz
TTITLE14=Your Wedding
TTITLE15=Read This Letter
TTITLE16=I Let The World Pass Me By
TTITLE17=Send Me Back My Love
TTITLE18=My Hands Are Clean
TTITLE19=Crying In My Sleep
TTITLE20=Deep Dark Water
TTITLE21=Before You Came Along
TTITLE22=Crying Is My Favorite Mood
TTITLE23=He Will
TTITLE24=Make Me Wonderful In Her Eyes
TTITLE25=Beyond The Clouds
EXTD=
EXTT0=
EXTT1=
EXTT2=
EXTT3=
EXTT4=
EXTT5=
EXTT6=
EXTT7=
EXTT8=
EXTT9=
EXTT10=
EXTT11=
EXTT12=
EXTT13=
EXTT14=
EXTT15=
EXTT16=
EXTT17=
EXTT18=
EXTT19=
EXTT20=
EXTT21=
EXTT22=
EXTT23=
EXTT24=
EXTT25=
PLAYORDER=
